<?xml version="1.0" encoding="iso-8859-1"?>
<!-- Generator: Adobe Illustrator 19.0.1, SVG Export Plug-In . SVG Version: 6.00 Build 0)  -->
<svg version="1.1" xmlns="http://www.w3.org/2000/svg" xmlns:xlink="http://www.w3.org/1999/xlink" x="0px" y="0px"
	 viewBox="0 0 294.167 294.167" style="enable-background:new 0 0 294.167 294.167;" xml:space="preserve">
<g id="blog">
	<g>
		<circle style="fill:#1BB798;" cx="147.083" cy="147.083" r="147.083"/>
		<g>
			
				<rect x="71.521" y="76.077" style="fill:none;stroke:#ECEFF0;stroke-width:12;stroke-miterlimit:10;" width="154.746" height="157.3"/>
			<rect x="87.608" y="96.841" style="fill:#ECEFF0;" width="40.985" height="8.427"/>
			<rect x="87.608" y="108.333" style="fill:#ECEFF0;" width="84.651" height="8.427"/>
			<rect x="87.608" y="119.824" style="fill:#ECEFF0;" width="30.643" height="8.427"/>
			<rect x="87.608" y="131.315" style="fill:#ECEFF0;" width="61.286" height="8.427"/>
			<rect x="87.608" y="142.806" style="fill:#ECEFF0;" width="103.036" height="8.427"/>
			<rect x="87.608" y="154.297" style="fill:#ECEFF0;" width="88.481" height="8.427"/>
			<rect x="87.608" y="165.788" style="fill:#ECEFF0;" width="72.394" height="8.427"/>
			<rect x="87.608" y="177.279" style="fill:#ECEFF0;" width="111.463" height="8.427"/>
			<rect x="87.608" y="188.77" style="fill:#ECEFF0;" width="95.376" height="8.427"/>
			<rect x="87.608" y="200.261" style="fill:#ECEFF0;" width="38.304" height="8.427"/>
			<g>
				
					<rect x="203.233" y="61.569" transform="matrix(0.7311 0.6822 -0.6822 0.7311 120.5209 -119.6608)" style="fill:#E3E6E7;" width="17.693" height="63.024"/>
				
					<rect x="229.031" y="59.13" transform="matrix(0.7311 0.6822 -0.6822 0.7311 108.5949 -144.694)" style="fill:#DBDDDC;" width="17.693" height="12.605"/>
				<polygon style="fill:#DBDDDC;" points="197.05,122.156 184.114,110.085 178.032,129.571 				"/>
				<polygon style="fill:#515251;" points="183.667,127.374 179.834,123.797 178.032,129.571 				"/>
			</g>
		</g>
	</g>
</g>
<g id="Layer_1">
</g>
</svg>
