<?xml version="1.0" encoding="iso-8859-1"?>
<!-- Generator: Adobe Illustrator 19.0.1, SVG Export Plug-In . SVG Version: 6.00 Build 0)  -->
<svg version="1.1" xmlns="http://www.w3.org/2000/svg" xmlns:xlink="http://www.w3.org/1999/xlink" x="0px" y="0px"
	 viewBox="0 0 294.167 294.167" style="enable-background:new 0 0 294.167 294.167;" xml:space="preserve">
<g id="ecommerce">
	<circle style="fill:#C03B2B;" cx="147.083" cy="147.083" r="147.083"/>
	<rect x="223.909" y="75.868" style="fill:#EEF2F5;" width="27.214" height="13.809"/>
	
		<rect x="151.607" y="129.909" transform="matrix(0.2735 -0.9619 0.9619 0.2735 23.1566 304.2849)" style="fill:#EEF2F5;" width="122.795" height="13.809"/>
	<rect x="66.481" y="183.95" style="fill:#EEF2F5;" width="136.657" height="13.809"/>
	<polygon style="fill:#EEF2F5;" points="184.166,172.373 187.781,159.659 71.486,159.659 75.101,172.373 	"/>
	<polygon style="fill:#EEF2F5;" points="188.964,155.498 192.579,142.784 66.689,142.784 70.303,155.498 	"/>
	<polygon style="fill:#EEF2F5;" points="193.761,138.623 197.376,125.909 61.891,125.909 65.506,138.623 	"/>
	<polygon style="fill:#EEF2F5;" points="198.559,121.748 202.174,109.033 57.093,109.033 60.708,121.748 	"/>
	<polygon style="fill:#EEF2F5;" points="203.357,104.873 206.972,92.158 52.296,92.158 55.911,104.873 	"/>
	<circle style="fill:#EEF2F5;" cx="163.962" cy="224.498" r="16.8"/>
	<circle style="fill:#EEF2F5;" cx="100.885" cy="224.498" r="16.8"/>
</g>
<g id="Layer_1">
</g>
</svg>
