<?xml version="1.0" encoding="iso-8859-1"?>
<!-- Generator: Adobe Illustrator 19.0.1, SVG Export Plug-In . SVG Version: 6.00 Build 0)  -->
<svg version="1.1" xmlns="http://www.w3.org/2000/svg" xmlns:xlink="http://www.w3.org/1999/xlink" x="0px" y="0px"
	 viewBox="0 0 294.167 294.167" style="enable-background:new 0 0 294.167 294.167;" xml:space="preserve">
<g id="social_icons">
	<circle style="fill:#4F8099;" cx="147.083" cy="147.083" r="147.083"/>
	<g id="social">
		<g id="pin">
			<circle style="fill:#CB2027;" cx="91.243" cy="115.073" r="44.324"/>
			<path style="fill-rule:evenodd;clip-rule:evenodd;fill:#EEF2F5;" d="M81.656,142.659c1.284-2.037,2.744-4.65,3.453-7.262
				c0,0,0.399-1.506,2.392-9.343c1.152,2.259,4.607,4.251,8.28,4.251c10.938,0,18.378-9.963,18.378-23.335
				c0-10.051-8.547-19.483-21.566-19.483c-16.116,0-24.263,11.6-24.263,21.254c0,5.844,2.213,11.068,6.952,13.017
				c0.752,0.311,1.46,0,1.681-0.885c0.179-0.576,0.532-2.082,0.71-2.701c0.221-0.886,0.133-1.151-0.487-1.904
				c-1.372-1.638-2.259-3.718-2.259-6.686c0-8.591,6.42-16.295,16.738-16.295c9.12,0,14.168,5.58,14.168,13.063
				c0,9.786-4.34,18.065-10.804,18.065c-3.541,0-6.199-2.922-5.357-6.554c1.017-4.295,3.009-8.944,3.009-12.043
				c0-2.79-1.505-5.136-4.604-5.136c-3.631,0-6.552,3.764-6.552,8.812c0,0,0,3.232,1.105,5.402
				c-3.717,15.763-4.381,18.509-4.381,18.509c-0.62,2.568-0.666,5.446-0.576,7.836"/>
		</g>
		<g id="facebook_2_">
			<circle id="facebook" style="fill:#3B5998;" cx="149.996" cy="115.073" r="44.324"/>
			<path style="fill-rule:evenodd;clip-rule:evenodd;fill:#EEF2F5;" d="M161.96,106.202l-0.934,8.87h-7.073v25.737h-10.624v-25.737
				h-5.297v-8.87h5.297v-5.341c0-7.215,2.991-11.525,11.497-11.525h7.073v8.87h-4.424c-3.303,0-3.521,1.25-3.521,3.561v4.435H161.96
				z"/>
		</g>
		<g id="twitter">
			<circle style="fill:#00ACED;" cx="212.334" cy="115.073" r="44.324"/>
			<path style="fill-rule:evenodd;clip-rule:evenodd;fill:#EEF2F5;" d="M233.128,107.086c0.03,0.425,0.03,0.849,0.03,1.274
				c0,12.952-9.887,27.876-27.956,27.876c-5.567,0-10.738-1.608-15.089-4.399c0.791,0.091,1.552,0.122,2.373,0.122
				c4.594,0,8.822-1.548,12.199-4.186c-4.32-0.091-7.94-2.911-9.187-6.794c0.609,0.091,1.217,0.152,1.856,0.152
				c0.882,0,1.765-0.122,2.586-0.334c-4.502-0.91-7.879-4.853-7.879-9.615c0-0.031,0-0.091,0-0.122
				c1.308,0.728,2.83,1.183,4.441,1.243c-2.646-1.759-4.38-4.762-4.38-8.16c0-1.82,0.486-3.488,1.338-4.944
				c4.837,5.946,12.107,9.828,20.26,10.253c-0.152-0.728-0.244-1.487-0.244-2.245c0-5.399,4.381-9.797,9.826-9.797
				c2.829,0,5.384,1.183,7.179,3.094c2.221-0.425,4.35-1.244,6.236-2.366c-0.73,2.275-2.282,4.185-4.32,5.399
				c1.977-0.212,3.894-0.759,5.658-1.517C236.718,103.963,235.045,105.692,233.128,107.086z"/>
		</g>
		<g id="google">
			<circle style="fill:#DD4B39;" cx="81.833" cy="179.094" r="44.324"/>
			<path style="fill-rule:evenodd;clip-rule:evenodd;fill:#EEF2F5;" d="M91.243,156.31l-3.982,2.329h-3.98
				c2.92,1.829,4.393,5.397,4.393,8.7c0,7.815-6.604,8.404-6.604,12.297c0,3.805,8.846,5.309,8.846,13.566
				c0,3.391-1.622,6.133-4.129,8.315c-3.391,2.919-8.021,3.864-12.386,3.864c-5.514,0-13.476-2.36-13.476-9.201
				c0-1.386,0.472-2.743,1.092-3.982c2.624-5.307,10.823-6.664,16.1-6.812c-0.973-1.268-1.887-2.742-1.887-4.394
				c0-0.973,0.354-1.621,0.648-2.536c-0.707,0.089-1.386,0.148-2.064,0.148c-5.72,0-10.674-4.217-10.674-10.144
				c0-5.604,4.334-10.381,9.702-11.56c1.798-0.384,3.657-0.589,5.514-0.589H91.243z M78.886,187.214
				c-0.501-0.06-0.973-0.06-1.474-0.06c-4.837,0-12.032,1.534-12.032,7.667c0,5.662,6.369,7.844,11.089,7.844
				c4.393,0,9.289-1.769,9.289-6.929C85.758,191.608,81.895,189.308,78.886,187.214z M74.346,158.433
				c-3.864,0-5.751,3.421-5.751,6.9c0,4.483,2.949,11.502,8.197,11.502c4.041,0,5.426-2.92,5.426-6.518
				C82.218,165.834,79.801,158.433,74.346,158.433z M108.994,167.634h-7.549v7.549h-3.775v-7.549h-7.549v-3.775h7.549v-7.549h3.775
				v7.549h7.549V167.634z"/>
		</g>
		<g id="youtube">
			<circle style="fill:#BB0000;" cx="148.222" cy="179.094" r="44.324"/>
			<path style="fill-rule:evenodd;clip-rule:evenodd;fill:#EEF2F5;" d="M172.162,189.492c-0.581,2.348-2.742,4.073-5.348,4.336
				c-6.151,0.599-12.386,0.599-18.592,0.599c-6.206,0-12.441,0-18.592-0.599c-2.605-0.263-4.766-1.988-5.376-4.336
				c-0.859-3.33-0.859-6.972-0.859-10.398c0-3.426,0-7.068,0.887-10.398c0.61-2.348,2.742-4.073,5.348-4.336
				c6.151-0.599,12.386-0.599,18.592-0.599c6.206,0,12.441,0,18.592,0.599c2.605,0.263,4.766,1.988,5.376,4.336
				c0.859,3.33,0.859,6.972,0.859,10.398C173.049,182.52,173.049,186.162,172.162,189.492z M158.031,177.8l-14.187-7.666
				c-0.554-0.311-1.247-0.311-1.801-0.048c-0.554,0.263-0.915,0.791-0.915,1.342v15.333c0,0.551,0.36,1.078,0.915,1.342
				c0.277,0.12,0.554,0.192,0.859,0.192c0.333,0,0.665-0.072,0.942-0.24l14.187-7.666c0.526-0.264,0.831-0.767,0.831-1.294
				C158.862,178.567,158.557,178.064,158.031,177.8z"/>
		</g>
		<g id="linkedin">
			<circle style="fill:#007BB5;" cx="212.334" cy="179.094" r="44.324"/>
			<path style="fill-rule:evenodd;clip-rule:evenodd;fill:#EEF2F5;" d="M198.074,169.536h-0.049c-2.711,0-4.444-1.852-4.444-4.169
				c0-2.365,1.807-4.169,4.541-4.169c2.759,0,4.468,1.804,4.493,4.169C202.64,167.684,200.882,169.536,198.074,169.536z
				 M202.103,196.989h-8.057v-24.161h8.057V196.989z M231.086,196.989h-8.033v-12.922c0-3.242-1.172-5.462-4.078-5.462
				c-2.222,0-3.54,1.488-4.127,2.927c-0.195,0.536-0.268,1.243-0.268,1.975v13.482h-8.033c0.097-21.894,0-24.161,0-24.161h8.033
				v3.511h-0.049c1.05-1.658,2.954-4.072,7.301-4.072c5.298,0,9.254,3.462,9.254,10.874V196.989z"/>
		</g>
	</g>
</g>
<g id="Layer_1">
</g>
</svg>
