<?xml version="1.0" encoding="iso-8859-1"?>
<!-- Generator: Adobe Illustrator 19.0.1, SVG Export Plug-In . SVG Version: 6.00 Build 0)  -->
<svg version="1.1" xmlns="http://www.w3.org/2000/svg" xmlns:xlink="http://www.w3.org/1999/xlink" x="0px" y="0px"
	 viewBox="0 0 294.167 294.167" style="enable-background:new 0 0 294.167 294.167;" xml:space="preserve">
<g id="development">
	<circle style="fill:#93A5A6;" cx="147.083" cy="147.083" r="147.083"/>
	<g>
		<path style="fill:#2380BC;" d="M233.811,70.548v74.67h-32.61l1.61-10.3h-0.16c0.11-0.52,0.16-1.06,0.16-1.6
			c0-5.31-5.22-9.62-11.66-9.62c-6.45,0-11.67,4.31-11.67,9.62c0,0.54,0.05,1.08,0.16,1.6h-0.16l1.78,10.3h-32.78v-74.67h33.38
			l-2.38,15.3h0.16c-0.1,0.52-0.16,1.05-0.16,1.6c0,5.32,5.22,9.62,11.67,9.62c6.44,0,11.66-4.3,11.66-9.62
			c0-0.55-0.06-1.08-0.16-1.6h0.16l-2.65-15.3H233.811z"/>
		<circle style="fill:#2380BC;" cx="135.455" cy="107.423" r="8.308"/>
		<polygon style="fill:#2380BC;" points="169.147,103.269 169.147,111.116 136.84,115.731 136.84,99.116 		"/>
		<circle style="fill:#2380BC;" cx="246.84" cy="108.346" r="8.308"/>
		<polygon style="fill:#2380BC;" points="213.147,112.5 213.147,104.654 245.455,100.039 245.455,116.654 		"/>
		<ellipse style="fill:#C03B2B;" cx="191.147" cy="135.416" rx="8.715" ry="8.245"/>
		<polygon style="fill:#C03B2B;" points="195.505,168.855 187.274,168.855 182.433,136.79 199.862,136.79 		"/>
		<circle style="fill:#F39D20;" cx="161.301" cy="185.552" r="8.308"/>
		<polygon style="fill:#F39D20;" points="127.609,181.398 127.609,189.244 159.917,193.859 159.917,177.244 		"/>
		<circle style="fill:#F39D20;" cx="47.327" cy="185.552" r="8.308"/>
		<polygon style="fill:#F39D20;" points="81.019,189.705 81.019,181.859 48.712,177.244 48.712,193.859 		"/>
		<circle style="fill:#1EA285;" cx="103.673" cy="58.384" r="8.308"/>
		<polygon style="fill:#1EA285;" points="99.519,92.077 107.365,92.077 111.98,59.769 95.365,59.769 		"/>
		<path style="fill:#1EA285;" d="M134.045,96.149c0.525,0,1.037,0.066,1.538,0.169v-0.169l9.897,1.554V70.551H60.148v31.084
			l11.179-1.597v0.125c0.451-0.076,0.912-0.125,1.385-0.125c4.588,0,8.308,3.719,8.308,8.308c0,4.588-3.719,8.308-8.308,8.308
			c-0.473,0-0.933-0.049-1.385-0.125v0.125l-11.179-1.437v30.001h85.333V116.97l-9.897,1.727v-0.169
			c-0.501,0.103-1.013,0.169-1.538,0.169c-5.098,0-9.231-5.048-9.231-11.274S128.947,96.149,134.045,96.149z"/>
		<circle style="fill:#1EA285;" cx="103.955" cy="157.026" r="8.308"/>
		<polygon style="fill:#1EA285;" points="108.109,123.333 100.263,123.333 95.648,155.641 112.263,155.641 		"/>
		<path style="fill:#F39D20;" d="M145.481,148.218v74.67h-34.92l1.56-12.18h-0.12c0.08-0.45,0.12-0.92,0.12-1.39
			c0-4.59-3.72-8.31-8.31-8.31c-4.58,0-8.3,3.72-8.3,8.31c0,0.47,0.04,0.94,0.12,1.39h-0.12l1.74,12.18h-37.1v-74.67h34.39
			l-1.44,8.48h0.16c-0.1,0.5-0.16,1-0.16,1.52c0,5.02,4.86,9.09,10.85,9.09c6,0,10.86-4.07,10.86-9.09c0-0.52-0.06-1.02-0.16-1.52
			h0.16l-1.3-8.48H145.481z"/>
		<path style="fill:#C03B2B;" d="M210.811,185.548c0,5.88,4.05,10.65,9.05,10.65c0.51,0,1.02-0.05,1.51-0.15v0.15l12.44-1.88v28.57
			h-85.33v-27.77l12.44,1.1v-0.16c0.5,0.1,1,0.16,1.51,0.16c5,0,10.05-4.78,10.05-10.67c0-5.89-5.05-10.66-10.05-10.66
			c-0.51,0-1.01,0.06-1.51,0.16v-0.16l-12.44,0.88v-27.55h85.33v28.77l-12.44-2.09v0.15c-0.49-0.1-1-0.15-1.51-0.15
			C214.861,174.898,210.811,179.668,210.811,185.548z"/>
		<circle style="fill:#C03B2B;" cx="191.147" cy="235.782" r="8.308"/>
		<polygon style="fill:#C03B2B;" points="186.994,202.09 194.84,202.09 199.455,234.398 182.84,234.398 		"/>
	</g>
</g>
<g id="Layer_1">
</g>
</svg>
