<?xml version="1.0" encoding="iso-8859-1"?>
<!-- Generator: Adobe Illustrator 19.0.1, SVG Export Plug-In . SVG Version: 6.00 Build 0)  -->
<svg version="1.1" xmlns="http://www.w3.org/2000/svg" xmlns:xlink="http://www.w3.org/1999/xlink" x="0px" y="0px"
	 viewBox="0 0 294.167 294.167" style="enable-background:new 0 0 294.167 294.167;" xml:space="preserve">
<g id="sharing_ideas">
	<circle style="fill:#35495E;" cx="147.083" cy="147.083" r="147.083"/>
	<g>
		<g>
			<path style="fill:#EEF2F5;" d="M85.262,147.736c-6.126,0-15.373-2.497-20.832,0c-20.174,9.229-24.455,37.38-24.455,61.71h85.292
				C125.266,178.533,114.026,147.736,85.262,147.736z"/>
			<path style="fill:#EEF2F5;" d="M51.071,113.03c0,0-0.059,14.654,9.736,25.49c7.145,7.904,20.471,10.378,37.351,6.394
				c0,0,1.889,3.772,5.123-18.35l3.293-0.125c1.891-0.072,3.203-1.905,2.64-3.712c-1.242-3.98-3.39-10.148-5.383-12.364
				c-2.87-3.19,7.457-28.176-27.707-31.023c-5.418-0.439-10.821,1.249-15.017,4.705C55.637,88.551,49.93,100.079,51.071,113.03z"/>
		</g>
		<g>
			<path style="fill:#EEF2F5;" d="M208.904,147.736c6.126,0,15.373-2.497,20.832,0c20.174,9.229,24.455,37.38,24.455,61.71h-85.292
				C168.901,178.533,180.141,147.736,208.904,147.736z"/>
			<path style="fill:#EEF2F5;" d="M243.096,113.03c0,0,0.059,14.654-9.736,25.49c-7.145,7.904-20.471,10.378-37.351,6.394
				c0,0-1.889,3.772-5.123-18.35l-3.293-0.125c-1.891-0.072-3.203-1.905-2.64-3.712c1.242-3.98,3.39-10.148,5.383-12.364
				c2.87-3.19-7.457-28.176,27.707-31.023c5.418-0.439,10.821,1.249,15.017,4.705C238.53,88.551,244.237,100.079,243.096,113.03z"/>
		</g>
		<path style="fill:#93A5A6;" d="M194.493,72.787c0,9.901-7.14,18.607-17.933,23.619c-1.542,0.716,2.702,9.286,2.702,9.286
			s-10.675-6.419-12.316-6.052c-3.697,0.826-7.628,1.272-11.705,1.272c-21.678,0-39.252-12.592-39.252-28.125
			s17.574-28.125,39.252-28.125S194.493,57.254,194.493,72.787z"/>
		<g>
			<path style="fill:#EEF2F5;" d="M114.982,100.895c1.152-4.285,2.406-9.931,1.253-10.679c-7.82-5.083-12.305-12.337-12.305-19.903
				c0-14.788,16.727-26.818,37.287-26.818c20.561,0,37.287,12.031,37.287,26.818S161.778,97.13,141.218,97.13
				c-6.282,0-12.493-1.146-17.962-3.314l-0.081-0.032l-0.176-0.015C121.792,93.769,117.467,98.223,114.982,100.895z"/>
			<path style="fill:#808D8E;" d="M141.218,43.947c20.311,0,36.834,11.827,36.834,26.365c0,14.538-16.524,26.365-36.834,26.365
				c-6.226,0-12.379-1.135-17.795-3.283c-0.133-0.053-0.275-0.079-0.424-0.079c-0.976,0-3.367,2.001-7.124,5.959
				c2.129-8.451,1.046-9.155,0.608-9.439c-7.689-4.997-12.099-12.113-12.099-19.523C104.384,55.774,120.907,43.947,141.218,43.947
				 M141.218,43.041c-20.843,0-37.74,12.21-37.74,27.271c0,8.053,4.83,15.291,12.511,20.283c1.242,0.807-1.946,11.991-1.946,11.991
				s7.582-8.365,8.955-8.365c0.034,0,0.064,0.005,0.09,0.015c5.38,2.134,11.559,3.347,18.129,3.347
				c20.843,0,37.74-12.21,37.74-27.271S162.061,43.041,141.218,43.041L141.218,43.041z"/>
		</g>
		<g>
			<circle style="fill:#808D8E;" cx="141.922" cy="70.6" r="3.523"/>
			<circle style="fill:#808D8E;" cx="152.792" cy="70.6" r="3.523"/>
			<circle style="fill:#808D8E;" cx="129.644" cy="70.6" r="3.523"/>
		</g>
	</g>
</g>
<g id="Layer_1">
</g>
</svg>
