<?xml version="1.0" encoding="iso-8859-1"?>
<!-- Generator: Adobe Illustrator 19.0.1, SVG Export Plug-In . SVG Version: 6.00 Build 0)  -->
<svg version="1.1" xmlns="http://www.w3.org/2000/svg" xmlns:xlink="http://www.w3.org/1999/xlink" x="0px" y="0px"
	 viewBox="0 0 294.167 294.167" style="enable-background:new 0 0 294.167 294.167;" xml:space="preserve">
<g id="Strategies">
	<circle style="fill:#1BB798;" cx="147.083" cy="147.083" r="147.083"/>
	<g>
		<g>
			<path style="fill:#EFC419;" d="M196.555,144.146c0,25.845-11.717,56.383-28.633,71.182c-6.387,5.588-13.515,3.333-21.034,3.333
				c-6.771,0-13.225,2.887-19.106-1.733c-17.947-14.098-30.561-45.966-30.561-72.782c0-35.604,22.237-64.467,49.667-64.467
				S196.555,108.541,196.555,144.146z"/>
			<path style="fill:#2C3E50;" d="M176.299,221.456h-58.823c-2.349,0-4.254-1.904-4.254-4.254v-0.554
				c0-2.349,1.904-4.254,4.254-4.254h58.823c2.349,0,4.254,1.904,4.254,4.254v0.554
				C180.553,219.551,178.648,221.456,176.299,221.456z"/>
			<path style="fill:#2C3E50;" d="M117.476,233.19h58.823c2.349,0,4.254-1.904,4.254-4.254v-0.554c0-2.349-1.904-4.254-4.254-4.254
				h-58.823c-2.349,0-4.254,1.904-4.254,4.254v0.554C113.222,231.286,115.127,233.19,117.476,233.19z"/>
			<path style="fill:#2C3E50;" d="M176.299,244.925h-58.823c-2.349,0-4.254-1.904-4.254-4.254v-0.554
				c0-2.349,1.904-4.254,4.254-4.254h58.823c2.349,0,4.254,1.904,4.254,4.254v0.554
				C180.553,243.021,178.648,244.925,176.299,244.925z"/>
			<path style="fill:#2C3E50;" d="M117.476,256.66h58.823c2.349,0,4.254-1.904,4.254-4.254v-0.554c0-2.349-1.904-4.254-4.254-4.254
				h-58.823c-2.349,0-4.254,1.904-4.254,4.254v0.554C113.222,254.755,115.127,256.66,117.476,256.66z"/>
		</g>
		<g style="opacity:0.06;">
			<path style="fill:#231F20;" d="M146.888,79.68v138.981c-6.771,0-13.225,2.887-19.108-1.733c-1.725-1.353-3.399-2.871-5.015-4.533
				c-15.239-15.638-25.546-44.005-25.546-68.249C97.219,108.543,119.456,79.68,146.888,79.68z"/>
			<path style="fill:#231F20;" d="M146.888,212.395v9.063h-29.411c-2.351,0-4.256-1.905-4.256-4.256v-0.555
				c0-2.347,1.905-4.252,4.256-4.252H146.888z"/>
			<path style="fill:#231F20;" d="M146.888,224.129v9.063h-29.411c-2.351,0-4.256-1.905-4.256-4.256v-0.555
				c0-2.347,1.905-4.252,4.256-4.252H146.888z"/>
			<path style="fill:#231F20;" d="M146.888,235.864v9.063h-29.411c-2.351,0-4.256-1.905-4.256-4.256v-0.555
				c0-2.347,1.905-4.252,4.256-4.252H146.888z"/>
			<path style="fill:#231F20;" d="M146.888,247.598v9.063h-29.411c-2.351,0-4.256-1.905-4.256-4.256v-0.555
				c0-2.347,1.905-4.252,4.256-4.252H146.888z"/>
		</g>
		<path style="fill:none;stroke:#F9DF93;stroke-width:3.1292;stroke-linecap:round;stroke-miterlimit:10;" d="M162.19,88.668
			c0.326,0.361,10.712,3.666,19.517,18.775"/>
		
			<line style="fill:none;stroke:#EFC419;stroke-width:3.1292;stroke-linecap:round;stroke-miterlimit:10;" x1="146.888" y1="65.218" x2="146.888" y2="37.505"/>
		
			<line style="fill:none;stroke:#EFC419;stroke-width:3.1292;stroke-linecap:round;stroke-miterlimit:10;" x1="186.858" y1="75.928" x2="200.714" y2="51.928"/>
		
			<line style="fill:none;stroke:#EFC419;stroke-width:3.1292;stroke-linecap:round;stroke-miterlimit:10;" x1="204.774" y1="105.188" x2="228.774" y2="91.331"/>
		
			<line style="fill:none;stroke:#EFC419;stroke-width:3.1292;stroke-linecap:round;stroke-miterlimit:10;" x1="215.484" y1="145.158" x2="243.197" y2="145.158"/>
		<path style="fill:none;stroke:#EFC419;stroke-width:3.1292;stroke-linecap:round;stroke-miterlimit:10;" d="M93.061,238.388"/>
		<path style="fill:none;stroke:#EFC419;stroke-width:3.1292;stroke-linecap:round;stroke-miterlimit:10;" d="M106.918,214.388"/>
		<path style="fill:none;stroke:#EFC419;stroke-width:3.1292;stroke-linecap:round;stroke-miterlimit:10;" d="M53.658,198.984"/>
		
			<line style="fill:none;stroke:#EFC419;stroke-width:3.1292;stroke-linecap:round;stroke-miterlimit:10;" x1="78.683" y1="145.158" x2="50.97" y2="145.158"/>
		
			<line style="fill:none;stroke:#EFC419;stroke-width:3.1292;stroke-linecap:round;stroke-miterlimit:10;" x1="89.393" y1="105.188" x2="65.392" y2="91.331"/>
		
			<line style="fill:none;stroke:#EFC419;stroke-width:3.1292;stroke-linecap:round;stroke-miterlimit:10;" x1="106.918" y1="75.928" x2="93.061" y2="51.928"/>
	</g>
</g>
<g id="Layer_1">
</g>
</svg>
