<?xml version="1.0" encoding="iso-8859-1"?>
<!-- Generator: Adobe Illustrator 19.0.1, SVG Export Plug-In . SVG Version: 6.00 Build 0)  -->
<svg version="1.1" xmlns="http://www.w3.org/2000/svg" xmlns:xlink="http://www.w3.org/1999/xlink" x="0px" y="0px"
	 viewBox="0 0 59.289 59.289" style="enable-background:new 0 0 59.289 59.289;" xml:space="preserve">
<g id="facebook">
	<path style="fill-rule:evenodd;clip-rule:evenodd;fill:#ECF0F1;" d="M53.3,0H5.989C2.681,0,0,2.681,0,5.989V53.3
		c0,3.308,2.681,5.989,5.989,5.989H53.3c3.307,0,5.989-2.681,5.989-5.989V5.989C59.289,2.681,56.608,0,53.3,0z M47.831,29.644
		h-5.838v21.263h-8.769V29.644h-4.372v-7.328h4.372v-4.413c0-5.961,2.468-9.522,9.489-9.522h5.838v7.328h-3.652
		c-2.726,0-2.906,1.032-2.906,2.942v3.664h6.609L47.831,29.644z"/>
</g>
<g id="Layer_1">
</g>
</svg>
