<?xml version="1.0" encoding="iso-8859-1"?>
<!-- Generator: Adobe Illustrator 19.0.1, SVG Export Plug-In . SVG Version: 6.00 Build 0)  -->
<svg version="1.1" xmlns="http://www.w3.org/2000/svg" xmlns:xlink="http://www.w3.org/1999/xlink" x="0px" y="0px"
	 viewBox="0 0 59.289 59.289" style="enable-background:new 0 0 59.289 59.289;" xml:space="preserve">
<g id="google_x2B_">
	<g>
		<path style="fill-rule:evenodd;clip-rule:evenodd;fill:#ECF0F1;" d="M30.554,22.195c0-3.172-1.71-8.409-5.571-8.409
			c-2.734,0-4.069,2.42-4.069,4.882c0,3.172,2.087,8.138,5.8,8.138C29.573,26.806,30.554,24.741,30.554,22.195z"/>
		<path style="fill-rule:evenodd;clip-rule:evenodd;fill:#ECF0F1;" d="M28.196,34.151c-0.355-0.042-0.688-0.042-1.043-0.042
			c-3.423,0-8.514,1.085-8.514,5.426c0,4.006,4.507,5.55,7.846,5.55c3.109,0,6.573-1.252,6.573-4.903
			C33.058,37.261,30.325,35.633,28.196,34.151z"/>
		<path style="fill-rule:evenodd;clip-rule:evenodd;fill:#ECF0F1;" d="M53.3,0H5.989C2.681,0,0,2.681,0,5.989V53.3
			c0,3.308,2.681,5.989,5.989,5.989H53.3c3.308,0,5.989-2.681,5.989-5.989V5.989C59.289,2.681,56.608,0,53.3,0z M33.079,44.272
			c-2.4,2.066-5.676,2.734-8.765,2.734c-3.902,0-9.536-1.67-9.536-6.511c0-0.981,0.334-1.941,0.772-2.818
			c1.857-3.755,7.658-4.716,11.393-4.82c-0.688-0.897-1.335-1.941-1.335-3.109c0-0.689,0.251-1.147,0.458-1.795
			c-0.5,0.063-0.98,0.105-1.461,0.105c-4.048,0-7.553-2.984-7.553-7.178c0-3.966,3.067-7.346,6.865-8.18
			c1.273-0.271,2.588-0.417,3.902-0.417h9.119l-2.817,1.648h-2.817c2.066,1.294,3.109,3.819,3.109,6.156
			c0,5.53-4.674,5.947-4.674,8.701c0,2.692,6.26,3.757,6.26,9.6C36.001,40.787,34.853,42.728,33.079,44.272z M49.501,20.296h-5.342
			v5.342h-2.671v-5.342h-5.342v-2.671h5.342v-5.342h2.671v5.342h5.342V20.296z"/>
	</g>
</g>
<g id="Layer_1">
</g>
</svg>
