<?xml version="1.0" encoding="iso-8859-1"?>
<!-- Generator: Adobe Illustrator 19.0.1, SVG Export Plug-In . SVG Version: 6.00 Build 0)  -->
<svg version="1.1" xmlns="http://www.w3.org/2000/svg" xmlns:xlink="http://www.w3.org/1999/xlink" x="0px" y="0px"
	 viewBox="0 0 59.289 59.289" style="enable-background:new 0 0 59.289 59.289;" xml:space="preserve">
<g id="home">
	<g>
		<path style="fill-rule:evenodd;clip-rule:evenodd;fill:#ECF0F1;" d="M21.64,28.848h7.208V22.02H22.71
			C22.073,24.187,21.707,26.484,21.64,28.848z"/>
		<path style="fill-rule:evenodd;clip-rule:evenodd;fill:#ECF0F1;" d="M26.718,45.144c0.695,0.131,1.407,0.217,2.13,0.255v-6.606
			h-5.635C24.063,41.119,25.238,43.268,26.718,45.144z"/>
		<path style="fill-rule:evenodd;clip-rule:evenodd;fill:#ECF0F1;" d="M23.219,20.479h5.628V13.89
			c-0.724,0.038-1.435,0.124-2.131,0.255C25.241,16.017,24.068,18.159,23.219,20.479z"/>
		<path style="fill-rule:evenodd;clip-rule:evenodd;fill:#ECF0F1;" d="M21.107,22.02h-5.266c-1.133,2.043-1.826,4.361-1.95,6.828
			h6.207C20.161,26.493,20.506,24.199,21.107,22.02z"/>
		<path style="fill-rule:evenodd;clip-rule:evenodd;fill:#ECF0F1;" d="M24.354,14.784c-3.057,1.092-5.679,3.102-7.538,5.696h4.762
			C22.274,18.443,23.205,16.527,24.354,14.784z"/>
		<path style="fill-rule:evenodd;clip-rule:evenodd;fill:#ECF0F1;" d="M32.13,14.066c-0.554-0.088-1.118-0.145-1.689-0.175v6.588
			h5.248C34.829,18.127,33.635,15.956,32.13,14.066z"/>
		<path style="fill-rule:evenodd;clip-rule:evenodd;fill:#ECF0F1;" d="M20.098,30.441h-6.207c0.123,2.46,0.813,4.772,1.94,6.811
			h5.271C20.504,35.079,20.161,32.79,20.098,30.441z"/>
		<path style="fill-rule:evenodd;clip-rule:evenodd;fill:#ECF0F1;" d="M16.805,38.793c1.859,2.602,4.487,4.619,7.551,5.713
			c-1.153-1.748-2.086-3.67-2.783-5.713H16.805z"/>
		<path style="fill-rule:evenodd;clip-rule:evenodd;fill:#ECF0F1;" d="M22.705,37.252h6.142v-6.811H21.64
			C21.707,32.799,22.071,35.091,22.705,37.252z"/>
		<path style="fill-rule:evenodd;clip-rule:evenodd;fill:#ECF0F1;" d="M34.441,14.617c1.201,1.787,2.168,3.761,2.886,5.863h5.148
			C40.517,17.747,37.709,15.662,34.441,14.617z"/>
		<path style="fill-rule:evenodd;clip-rule:evenodd;fill:#ECF0F1;" d="M36.198,22.02h-5.756v6.828h6.826
			C37.2,26.484,36.835,24.187,36.198,22.02z"/>
		<path style="fill-rule:evenodd;clip-rule:evenodd;fill:#ECF0F1;" d="M38.81,28.848h6.589c-0.124-2.467-0.818-4.785-1.95-6.828
			h-5.647C38.402,24.199,38.746,26.493,38.81,28.848z"/>
		<path style="fill-rule:evenodd;clip-rule:evenodd;fill:#ECF0F1;" d="M53.3,0H5.989C2.681,0,0,2.681,0,5.989V53.3
			c0,3.307,2.681,5.989,5.989,5.989H53.3c3.307,0,5.989-2.682,5.989-5.989V5.989C59.289,2.681,56.608,0,53.3,0z M29.645,47.014
			c-9.578,0-17.369-7.792-17.369-17.369c0-9.577,7.792-17.369,17.369-17.369s17.369,7.792,17.369,17.369
			C47.014,39.222,39.222,47.014,29.645,47.014z"/>
		<path style="fill-rule:evenodd;clip-rule:evenodd;fill:#ECF0F1;" d="M37.806,37.252h5.651c1.127-2.039,1.818-4.351,1.941-6.811
			H38.81C38.747,32.79,38.405,35.079,37.806,37.252z"/>
		<path style="fill-rule:evenodd;clip-rule:evenodd;fill:#ECF0F1;" d="M34.441,44.673c3.275-1.048,6.087-3.139,8.045-5.88h-5.153
			C36.614,40.901,35.645,42.881,34.441,44.673z"/>
		<path style="fill-rule:evenodd;clip-rule:evenodd;fill:#ECF0F1;" d="M37.267,30.441h-6.826v6.811h5.761
			C36.836,35.09,37.201,32.799,37.267,30.441z"/>
		<path style="fill-rule:evenodd;clip-rule:evenodd;fill:#ECF0F1;" d="M30.441,38.793v6.605c0.571-0.029,1.134-0.087,1.688-0.175
			c1.509-1.895,2.705-4.071,3.566-6.43H30.441z"/>
	</g>
</g>
<g id="Layer_1">
</g>
</svg>
