<?xml version="1.0" encoding="iso-8859-1"?>
<!-- Generator: Adobe Illustrator 19.0.1, SVG Export Plug-In . SVG Version: 6.00 Build 0)  -->
<svg version="1.1" xmlns="http://www.w3.org/2000/svg" xmlns:xlink="http://www.w3.org/1999/xlink" x="0px" y="0px"
	 viewBox="0 0 59.289 59.289" style="enable-background:new 0 0 59.289 59.289;" xml:space="preserve">
<g id="twitter">
	<path style="fill-rule:evenodd;clip-rule:evenodd;fill:#ECF0F1;" d="M53.3,0H5.989C2.681,0,0,2.681,0,5.989V53.3
		c0,3.308,2.681,5.989,5.989,5.989H53.3c3.308,0,5.989-2.681,5.989-5.989V5.989C59.289,2.681,56.608,0,53.3,0z M46.416,22.286
		c0.023,0.321,0.023,0.642,0.023,0.963c0,9.787-7.412,21.064-20.958,21.064c-4.173,0-8.05-1.215-11.312-3.324
		c0.593,0.069,1.163,0.092,1.779,0.092c3.444,0,6.614-1.169,9.145-3.164c-3.238-0.068-5.952-2.2-6.887-5.133
		c0.456,0.068,0.912,0.115,1.391,0.115c0.661,0,1.323-0.092,1.939-0.252c-3.375-0.688-5.907-3.667-5.907-7.265
		c0-0.023,0-0.069,0-0.092c0.981,0.55,2.121,0.894,3.329,0.939c-1.984-1.33-3.284-3.598-3.284-6.166
		c0-1.375,0.365-2.636,1.003-3.735c3.626,4.493,9.076,7.426,15.188,7.747c-0.114-0.55-0.183-1.124-0.183-1.696
		c0-4.08,3.284-7.403,7.366-7.403c2.121,0,4.036,0.894,5.382,2.338c1.665-0.321,3.261-0.94,4.675-1.788
		c-0.548,1.719-1.711,3.163-3.239,4.08c1.482-0.16,2.919-0.573,4.242-1.146C49.107,19.926,47.853,21.232,46.416,22.286z"/>
</g>
<g id="Layer_1">
</g>
</svg>
