<?xml version="1.0" encoding="iso-8859-1"?>
<!-- Generator: Adobe Illustrator 19.0.1, SVG Export Plug-In . SVG Version: 6.00 Build 0)  -->
<svg version="1.1" xmlns="http://www.w3.org/2000/svg" xmlns:xlink="http://www.w3.org/1999/xlink" x="0px" y="0px"
	 viewBox="0 0 225.069 225.069" style="enable-background:new 0 0 225.069 225.069;" xml:space="preserve">
<g id="coffee_cup">
	<radialGradient id="SVGID_1_" cx="112.5345" cy="112.5345" r="112.5345" gradientUnits="userSpaceOnUse">
		<stop  offset="0.3418" style="stop-color:#FFFFFF"/>
		<stop  offset="0.6071" style="stop-color:#F8F9F9"/>
		<stop  offset="1" style="stop-color:#BDC1C8"/>
	</radialGradient>
	<circle style="fill:url(#SVGID_1_);" cx="112.535" cy="112.535" r="112.535"/>
	<path style="fill:#754C28;" d="M112.535,3.394c-60.277,0-109.14,48.864-109.14,109.14c0,60.276,48.864,109.14,109.14,109.14
		c60.276,0,109.14-48.864,109.14-109.14C221.675,52.258,172.811,3.394,112.535,3.394z M112.535,218.383
		c-58.458,0-105.848-47.39-105.848-105.848c0-58.458,47.39-105.848,105.848-105.848c58.458,0,105.848,47.39,105.848,105.848
		C218.383,170.993,170.993,218.383,112.535,218.383z"/>
	<g>
		
			<radialGradient id="SVGID_2_" cx="-308.5274" cy="112.0834" r="14.0779" gradientTransform="matrix(1.2469 0 0 1 417.2284 0)" gradientUnits="userSpaceOnUse">
			<stop  offset="0" style="stop-color:#FFFFFF"/>
			<stop  offset="1" style="stop-color:#BDC1C8"/>
			<stop  offset="1" style="stop-color:#C3C7CD"/>
		</radialGradient>
		<path style="fill:url(#SVGID_2_);" d="M44,122.083H21.069c-5.523,0-10-4.477-10-10v0c0-5.523,4.477-10,10-10H44
			c5.523,0,10,4.477,10,10v0C54,117.606,49.523,122.083,44,122.083z"/>
		<circle style="fill:#BDC1C8;" cx="112.535" cy="112.535" r="69.035"/>
		<radialGradient id="SVGID_3_" cx="112.5346" cy="112.5345" r="58.5345" gradientUnits="userSpaceOnUse">
			<stop  offset="0.1888" style="stop-color:#8A5D3B"/>
			<stop  offset="0.4272" style="stop-color:#845735"/>
			<stop  offset="0.7596" style="stop-color:#714724"/>
			<stop  offset="1" style="stop-color:#603813"/>
		</radialGradient>
		<circle style="fill:url(#SVGID_3_);" cx="112.535" cy="112.535" r="58.534"/>
		<radialGradient id="SVGID_4_" cx="112.5346" cy="112.5345" r="66.179" gradientUnits="userSpaceOnUse">
			<stop  offset="0.6531" style="stop-color:#FFFFFF"/>
			<stop  offset="0.7602" style="stop-color:#F2F3F4"/>
			<stop  offset="0.9082" style="stop-color:#F8F9F9"/>
			<stop  offset="1" style="stop-color:#BDC1C8"/>
			<stop  offset="1" style="stop-color:#C3C7CD"/>
		</radialGradient>
		<path style="fill:url(#SVGID_4_);" d="M112.535,46.355c-36.55,0-66.179,29.629-66.179,66.179c0,36.55,29.629,66.179,66.179,66.179
			c36.55,0,66.179-29.629,66.179-66.179C178.714,75.985,149.084,46.355,112.535,46.355z M112.535,171.069
			C80.207,171.069,54,144.862,54,112.535C54,80.207,80.207,54,112.535,54c32.328,0,58.534,26.207,58.534,58.535
			C171.069,144.862,144.862,171.069,112.535,171.069z"/>
	</g>
	<g>
		<g>
			<path style="fill:#754C28;" d="M68.847,180.193c-1.485,0.922-2.591,1.777-3.568,2.531c-0.797,0.615-1.507,1.163-2.253,1.619
				c1.577,0.853,3.833,1.119,6.184,0.568c3.888-0.912,6.563-3.707,6.065-6.29C73.613,178.512,71.223,178.716,68.847,180.193z"/>
			<path style="fill:#754C28;" d="M64.579,181.817c0.998-0.771,2.129-1.644,3.663-2.598c2.39-1.485,4.762-1.821,6.552-1.781
				c-1.24-1.91-4.429-2.801-7.809-2.008c-3.953,0.927-6.659,3.801-6.045,6.419c0.159,0.678,0.529,1.271,1.054,1.764
				C62.85,183.151,63.638,182.544,64.579,181.817z"/>
		</g>
		<g>
			<path style="fill:#754C28;" d="M80.482,185.804c-1.485,0.922-2.591,1.777-3.568,2.531c-0.797,0.615-1.507,1.163-2.253,1.619
				c1.577,0.853,3.833,1.119,6.184,0.568c3.888-0.912,6.563-3.707,6.065-6.29C85.247,184.123,82.858,184.327,80.482,185.804z"/>
			<path style="fill:#754C28;" d="M76.214,187.428c0.998-0.771,2.129-1.644,3.663-2.598c2.39-1.485,4.762-1.821,6.552-1.781
				c-1.24-1.91-4.429-2.801-7.809-2.008c-3.953,0.927-6.659,3.801-6.045,6.419c0.159,0.678,0.529,1.271,1.054,1.764
				C74.485,188.762,75.273,188.155,76.214,187.428z"/>
		</g>
		<g>
			<path style="fill:#754C28;" d="M65.386,191.212c-1.485,0.922-2.591,1.777-3.568,2.531c-0.797,0.615-1.507,1.163-2.253,1.619
				c1.577,0.853,3.833,1.119,6.184,0.568c3.888-0.912,6.563-3.707,6.065-6.29C70.151,189.53,67.762,189.735,65.386,191.212z"/>
			<path style="fill:#754C28;" d="M61.118,192.836c0.998-0.771,2.129-1.644,3.663-2.598c2.39-1.485,4.762-1.821,6.552-1.781
				c-1.24-1.91-4.429-2.801-7.809-2.008c-3.953,0.927-6.659,3.801-6.045,6.419c0.159,0.678,0.529,1.271,1.054,1.764
				C59.389,194.169,60.177,193.563,61.118,192.836z"/>
		</g>
	</g>
</g>
<g id="Layer_1">
</g>
</svg>
