<?xml version="1.0" encoding="iso-8859-1"?>
<!-- Generator: Adobe Illustrator 19.0.1, SVG Export Plug-In . SVG Version: 6.00 Build 0)  -->
<svg version="1.1" xmlns="http://www.w3.org/2000/svg" xmlns:xlink="http://www.w3.org/1999/xlink" x="0px" y="0px"
	 viewBox="0 0 284.304 679.758" style="enable-background:new 0 0 284.304 679.758;" xml:space="preserve">
<g id="ruler">
	<g id="ruler_1_">
		<path style="fill:#EFC319;" d="M28.189,23.474C10.475,25.771-2.024,41.992,0.272,59.707l80.373,620.051l152.722-19.796
			L148.837,7.836L28.189,23.474z M109.543,660.4c-10.205,10.091-24.663-1.049-17.507-13.489
			C102.241,636.819,116.699,647.959,109.543,660.4z"/>
		<path style="opacity:0.05;" d="M28.189,23.474C10.475,25.771-2.024,41.992,0.272,59.707l80.373,620.051l76.361-9.898
			L72.475,17.734L28.189,23.474z M109.543,660.4c-10.205,10.091-24.663-1.049-17.507-13.489
			C102.241,636.819,116.699,647.959,109.543,660.4z"/>
		<path style="fill:#2C3E50;" d="M151.129,25.52l-43.883,5.688c-1.506,0.195-2.885-0.867-3.081-2.374v0
			c-0.195-1.506,0.867-2.885,2.374-3.081l43.883-5.688L151.129,25.52z"/>
		<path style="fill:#2C3E50;" d="M157.171,72.13l-43.883,5.688c-1.506,0.195-2.885-0.867-3.081-2.374l0,0
			c-0.195-1.506,0.868-2.885,2.374-3.081l43.883-5.688L157.171,72.13z"/>
		<path style="fill:#2C3E50;" d="M163.212,118.74l-43.883,5.688c-1.506,0.195-2.885-0.867-3.081-2.374v0
			c-0.195-1.506,0.867-2.885,2.374-3.081l43.883-5.688L163.212,118.74z"/>
		<path style="fill:#2C3E50;" d="M169.254,165.35l-43.883,5.688c-1.506,0.195-2.885-0.867-3.081-2.374v0
			c-0.195-1.506,0.867-2.885,2.374-3.081l43.883-5.688L169.254,165.35z"/>
		<path style="fill:#2C3E50;" d="M175.296,211.96l-43.883,5.688c-1.506,0.195-2.885-0.868-3.081-2.374l0,0
			c-0.195-1.506,0.867-2.885,2.374-3.081l43.883-5.688L175.296,211.96z"/>
		<path style="fill:#2C3E50;" d="M181.338,258.57l-43.883,5.688c-1.506,0.195-2.885-0.867-3.081-2.374v0
			c-0.195-1.506,0.867-2.885,2.374-3.081l43.883-5.688L181.338,258.57z"/>
		<path style="fill:#2C3E50;" d="M187.379,305.18l-43.883,5.688c-1.506,0.195-2.885-0.867-3.081-2.374l0,0
			c-0.195-1.506,0.867-2.885,2.374-3.081l43.883-5.688L187.379,305.18z"/>
		<path style="fill:#2C3E50;" d="M193.421,351.79l-43.883,5.688c-1.506,0.195-2.885-0.867-3.081-2.374l0,0
			c-0.195-1.506,0.867-2.885,2.374-3.081l43.883-5.688L193.421,351.79z"/>
		<path style="fill:#2C3E50;" d="M199.463,398.4l-43.883,5.688c-1.506,0.195-2.885-0.867-3.081-2.374v0
			c-0.195-1.506,0.867-2.885,2.374-3.081l43.883-5.688L199.463,398.4z"/>
		<path style="fill:#2C3E50;" d="M205.504,445.01l-43.883,5.688c-1.506,0.195-2.885-0.868-3.081-2.374l0,0
			c-0.195-1.506,0.867-2.885,2.374-3.081l43.883-5.688L205.504,445.01z"/>
		<path style="fill:#2C3E50;" d="M211.546,491.62l-43.883,5.688c-1.506,0.195-2.885-0.867-3.081-2.374l0,0
			c-0.195-1.506,0.867-2.885,2.374-3.081l43.883-5.688L211.546,491.62z"/>
		<path style="fill:#2C3E50;" d="M217.588,538.23l-43.883,5.688c-1.506,0.195-2.885-0.867-3.081-2.374l0,0
			c-0.195-1.506,0.867-2.885,2.374-3.081l43.883-5.688L217.588,538.23z"/>
		<path style="fill:#2C3E50;" d="M223.63,584.84l-43.883,5.688c-1.506,0.195-2.885-0.867-3.081-2.374l0,0
			c-0.195-1.506,0.867-2.885,2.374-3.081l43.883-5.688L223.63,584.84z"/>
		<path style="fill:#2C3E50;" d="M229.671,631.45l-43.883,5.688c-1.506,0.195-2.885-0.867-3.081-2.374h0
			c-0.195-1.506,0.868-2.885,2.374-3.081l43.883-5.688L229.671,631.45z"/>
		<path style="fill:#2C3E50;" d="M152.254,34.197l-23.966,3.107c-0.73,0.095-1.399-0.421-1.494-1.151l0,0
			c-0.095-0.73,0.421-1.399,1.151-1.494l23.966-3.107L152.254,34.197z"/>
		<path style="fill:#2C3E50;" d="M158.295,80.807l-23.966,3.107c-0.73,0.095-1.399-0.421-1.494-1.151v0
			c-0.095-0.73,0.421-1.399,1.151-1.494l23.966-3.107L158.295,80.807z"/>
		<path style="fill:#2C3E50;" d="M164.337,127.417l-23.966,3.107c-0.73,0.095-1.399-0.421-1.494-1.151l0,0
			c-0.095-0.73,0.421-1.399,1.151-1.494l23.966-3.107L164.337,127.417z"/>
		<path style="fill:#2C3E50;" d="M170.379,174.027l-23.966,3.107c-0.73,0.095-1.399-0.421-1.494-1.151v0
			c-0.095-0.73,0.421-1.399,1.151-1.494l23.966-3.107L170.379,174.027z"/>
		<path style="fill:#2C3E50;" d="M176.421,220.637l-23.966,3.107c-0.73,0.095-1.399-0.421-1.494-1.151l0,0
			c-0.095-0.73,0.421-1.399,1.151-1.494l23.966-3.107L176.421,220.637z"/>
		<path style="fill:#2C3E50;" d="M182.462,267.247l-23.966,3.107c-0.73,0.095-1.399-0.421-1.494-1.151v0
			c-0.095-0.73,0.421-1.399,1.151-1.494l23.966-3.107L182.462,267.247z"/>
		<path style="fill:#2C3E50;" d="M188.504,313.857l-23.966,3.107c-0.73,0.095-1.399-0.421-1.494-1.151l0,0
			c-0.095-0.73,0.421-1.399,1.151-1.494l23.966-3.107L188.504,313.857z"/>
		<path style="fill:#2C3E50;" d="M194.546,360.467l-23.966,3.107c-0.73,0.095-1.399-0.421-1.494-1.151l0,0
			c-0.095-0.73,0.421-1.399,1.151-1.494l23.966-3.107L194.546,360.467z"/>
		<path style="fill:#2C3E50;" d="M200.588,407.078l-23.966,3.107c-0.73,0.095-1.399-0.421-1.494-1.151v0
			c-0.095-0.73,0.421-1.399,1.151-1.494l23.966-3.107L200.588,407.078z"/>
		<path style="fill:#2C3E50;" d="M206.629,453.688l-23.966,3.107c-0.73,0.095-1.399-0.421-1.494-1.151l0,0
			c-0.095-0.73,0.421-1.399,1.151-1.494l23.966-3.107L206.629,453.688z"/>
		<path style="fill:#2C3E50;" d="M212.671,500.298l-23.966,3.107c-0.73,0.095-1.399-0.421-1.494-1.151l0,0
			c-0.095-0.73,0.421-1.399,1.151-1.494l23.966-3.107L212.671,500.298z"/>
		<path style="fill:#2C3E50;" d="M218.713,546.908l-23.966,3.107c-0.73,0.095-1.399-0.421-1.494-1.151l0,0
			c-0.095-0.73,0.421-1.399,1.151-1.494l23.966-3.107L218.713,546.908z"/>
		<path style="fill:#2C3E50;" d="M224.755,593.518l-23.966,3.107c-0.73,0.095-1.399-0.421-1.494-1.151l0,0
			c-0.095-0.73,0.421-1.399,1.151-1.494l23.966-3.107L224.755,593.518z"/>
		<path style="fill:#2C3E50;" d="M230.796,640.128l-23.966,3.107c-0.73,0.095-1.399-0.421-1.494-1.151l0,0
			c-0.095-0.73,0.421-1.399,1.151-1.494l23.966-3.107L230.796,640.128z"/>
		<path style="fill:#2C3E50;" d="M153.411,43.122l-23.966,3.107c-0.73,0.095-1.399-0.421-1.494-1.151v0
			c-0.095-0.73,0.421-1.399,1.151-1.494l23.966-3.107L153.411,43.122z"/>
		<path style="fill:#2C3E50;" d="M159.452,89.732l-23.966,3.107c-0.73,0.095-1.399-0.421-1.494-1.151l0,0
			c-0.095-0.73,0.421-1.399,1.151-1.494l23.966-3.107L159.452,89.732z"/>
		<path style="fill:#2C3E50;" d="M165.494,136.343l-23.966,3.107c-0.73,0.095-1.399-0.421-1.494-1.151l0,0
			c-0.095-0.73,0.421-1.399,1.151-1.494l23.966-3.107L165.494,136.343z"/>
		<path style="fill:#2C3E50;" d="M171.536,182.953l-23.966,3.107c-0.73,0.095-1.399-0.421-1.494-1.151l0,0
			c-0.095-0.73,0.421-1.399,1.151-1.494l23.966-3.107L171.536,182.953z"/>
		<path style="fill:#2C3E50;" d="M177.578,229.563l-23.966,3.107c-0.73,0.095-1.399-0.421-1.494-1.151l0,0
			c-0.095-0.73,0.421-1.399,1.151-1.494l23.966-3.107L177.578,229.563z"/>
		<path style="fill:#2C3E50;" d="M183.619,276.173l-23.966,3.107c-0.73,0.095-1.399-0.421-1.494-1.151l0,0
			c-0.095-0.73,0.421-1.399,1.151-1.494l23.966-3.107L183.619,276.173z"/>
		<path style="fill:#2C3E50;" d="M189.661,322.783l-23.966,3.107c-0.73,0.095-1.399-0.421-1.494-1.151l0,0
			c-0.095-0.73,0.421-1.399,1.151-1.494l23.966-3.107L189.661,322.783z"/>
		<path style="fill:#2C3E50;" d="M195.703,369.393l-23.966,3.107c-0.73,0.095-1.399-0.421-1.494-1.151l0,0
			c-0.095-0.73,0.421-1.399,1.151-1.494l23.966-3.107L195.703,369.393z"/>
		<path style="fill:#2C3E50;" d="M201.744,416.003l-23.966,3.107c-0.73,0.095-1.399-0.421-1.494-1.151l0,0
			c-0.095-0.73,0.421-1.399,1.151-1.494l23.966-3.107L201.744,416.003z"/>
		<path style="fill:#2C3E50;" d="M207.786,462.613l-23.966,3.107c-0.73,0.095-1.399-0.421-1.494-1.151l0,0
			c-0.095-0.73,0.421-1.399,1.151-1.494l23.966-3.107L207.786,462.613z"/>
		<path style="fill:#2C3E50;" d="M213.828,509.223l-23.966,3.107c-0.73,0.095-1.399-0.421-1.494-1.151l0,0
			c-0.095-0.73,0.421-1.399,1.151-1.494l23.966-3.107L213.828,509.223z"/>
		<path style="fill:#2C3E50;" d="M219.87,555.833l-23.966,3.107c-0.73,0.095-1.399-0.421-1.494-1.151l0,0
			c-0.095-0.73,0.421-1.399,1.151-1.494l23.966-3.107L219.87,555.833z"/>
		<path style="fill:#2C3E50;" d="M225.911,602.443l-23.966,3.107c-0.73,0.095-1.399-0.421-1.494-1.151h0
			c-0.095-0.73,0.421-1.399,1.151-1.494l23.966-3.107L225.911,602.443z"/>
		<path style="fill:#2C3E50;" d="M231.953,649.053l-23.966,3.107c-0.73,0.095-1.399-0.421-1.494-1.151l0,0
			c-0.095-0.73,0.421-1.399,1.151-1.494l23.966-3.107L231.953,649.053z"/>
		<path style="fill:#2C3E50;" d="M154.568,52.048l-23.966,3.107c-0.73,0.095-1.399-0.421-1.494-1.151v0
			c-0.095-0.73,0.421-1.399,1.151-1.494l23.966-3.107L154.568,52.048z"/>
		<path style="fill:#2C3E50;" d="M160.609,98.658l-23.966,3.107c-0.73,0.095-1.399-0.421-1.494-1.151h0
			c-0.095-0.73,0.421-1.399,1.151-1.494l23.966-3.107L160.609,98.658z"/>
		<path style="fill:#2C3E50;" d="M166.651,145.268l-23.966,3.107c-0.73,0.095-1.399-0.421-1.494-1.151l0,0
			c-0.095-0.73,0.421-1.399,1.151-1.494l23.966-3.107L166.651,145.268z"/>
		<path style="fill:#2C3E50;" d="M172.693,191.878l-23.966,3.107c-0.73,0.095-1.399-0.421-1.494-1.151v0
			c-0.095-0.73,0.421-1.399,1.151-1.494l23.966-3.107L172.693,191.878z"/>
		<path style="fill:#2C3E50;" d="M178.734,238.488l-23.966,3.107c-0.73,0.095-1.399-0.421-1.494-1.151l0,0
			c-0.095-0.73,0.421-1.399,1.151-1.494l23.966-3.107L178.734,238.488z"/>
		<path style="fill:#2C3E50;" d="M184.776,285.098l-23.966,3.107c-0.73,0.095-1.399-0.421-1.494-1.151l0,0
			c-0.095-0.73,0.421-1.399,1.151-1.494l23.966-3.107L184.776,285.098z"/>
		<path style="fill:#2C3E50;" d="M190.818,331.708l-23.966,3.107c-0.73,0.095-1.399-0.421-1.494-1.151l0,0
			c-0.095-0.73,0.421-1.399,1.151-1.494l23.966-3.107L190.818,331.708z"/>
		<path style="fill:#2C3E50;" d="M196.86,378.318l-23.966,3.107c-0.73,0.095-1.399-0.421-1.494-1.151l0,0
			c-0.095-0.73,0.421-1.399,1.151-1.494l23.966-3.107L196.86,378.318z"/>
		<path style="fill:#2C3E50;" d="M202.901,424.928l-23.966,3.107c-0.73,0.095-1.399-0.421-1.494-1.151l0,0
			c-0.095-0.73,0.421-1.399,1.151-1.494l23.966-3.107L202.901,424.928z"/>
		<path style="fill:#2C3E50;" d="M208.943,471.538l-23.966,3.107c-0.73,0.095-1.399-0.421-1.494-1.151l0,0
			c-0.095-0.73,0.421-1.399,1.151-1.494l23.966-3.107L208.943,471.538z"/>
		<path style="fill:#2C3E50;" d="M214.985,518.148l-23.966,3.107c-0.73,0.095-1.399-0.421-1.494-1.151l0,0
			c-0.095-0.73,0.421-1.399,1.151-1.494l23.966-3.107L214.985,518.148z"/>
		<path style="fill:#2C3E50;" d="M221.027,564.758l-23.966,3.107c-0.73,0.095-1.399-0.421-1.494-1.151v0
			c-0.095-0.73,0.421-1.399,1.151-1.494l23.966-3.107L221.027,564.758z"/>
		<path style="fill:#2C3E50;" d="M227.068,611.368l-23.966,3.107c-0.73,0.095-1.399-0.421-1.494-1.151l0,0
			c-0.095-0.73,0.421-1.399,1.151-1.494l23.966-3.107L227.068,611.368z"/>
		<path style="fill:#2C3E50;" d="M155.724,60.973l-23.966,3.107c-0.73,0.095-1.399-0.421-1.494-1.151v0
			c-0.095-0.73,0.421-1.399,1.151-1.494l23.966-3.107L155.724,60.973z"/>
		<path style="fill:#2C3E50;" d="M161.766,107.583L137.8,110.69c-0.73,0.095-1.399-0.421-1.494-1.151l0,0
			c-0.095-0.73,0.421-1.399,1.151-1.494l23.966-3.107L161.766,107.583z"/>
		<path style="fill:#2C3E50;" d="M167.808,154.193l-23.966,3.107c-0.73,0.095-1.399-0.421-1.494-1.151l0,0
			c-0.095-0.73,0.421-1.399,1.151-1.494l23.966-3.107L167.808,154.193z"/>
		<path style="fill:#2C3E50;" d="M173.85,200.803l-23.966,3.107c-0.73,0.095-1.399-0.421-1.494-1.151l0,0
			c-0.095-0.73,0.421-1.399,1.151-1.494l23.966-3.107L173.85,200.803z"/>
		<path style="fill:#2C3E50;" d="M179.891,247.413l-23.966,3.107c-0.73,0.095-1.399-0.421-1.494-1.151v0
			c-0.095-0.73,0.421-1.399,1.151-1.494l23.966-3.107L179.891,247.413z"/>
		<path style="fill:#2C3E50;" d="M185.933,294.023l-23.966,3.107c-0.73,0.095-1.399-0.421-1.494-1.151l0,0
			c-0.095-0.73,0.421-1.399,1.151-1.494l23.966-3.107L185.933,294.023z"/>
		<path style="fill:#2C3E50;" d="M191.975,340.633l-23.966,3.107c-0.73,0.095-1.399-0.421-1.494-1.151v0
			c-0.095-0.73,0.421-1.399,1.151-1.494l23.966-3.107L191.975,340.633z"/>
		<path style="fill:#2C3E50;" d="M198.017,387.243l-23.966,3.107c-0.73,0.095-1.399-0.421-1.494-1.151l0,0
			c-0.095-0.73,0.421-1.399,1.151-1.494l23.966-3.107L198.017,387.243z"/>
		<path style="fill:#2C3E50;" d="M204.058,433.854l-23.966,3.107c-0.73,0.095-1.399-0.421-1.494-1.151l0,0
			c-0.095-0.73,0.421-1.399,1.151-1.494l23.966-3.107L204.058,433.854z"/>
		<path style="fill:#2C3E50;" d="M210.1,480.464l-23.966,3.107c-0.73,0.095-1.399-0.421-1.494-1.151v0
			c-0.095-0.73,0.421-1.399,1.151-1.494l23.966-3.107L210.1,480.464z"/>
		<path style="fill:#2C3E50;" d="M216.142,527.074l-23.966,3.107c-0.73,0.095-1.399-0.421-1.494-1.151l0,0
			c-0.095-0.73,0.421-1.399,1.151-1.494l23.966-3.107L216.142,527.074z"/>
		<path style="fill:#2C3E50;" d="M222.184,573.684l-23.966,3.107c-0.73,0.095-1.399-0.421-1.494-1.151l0,0
			c-0.095-0.73,0.421-1.399,1.151-1.494l23.966-3.107L222.184,573.684z"/>
		<path style="fill:#2C3E50;" d="M228.225,620.294l-23.966,3.107c-0.73,0.095-1.399-0.421-1.494-1.151l0,0
			c-0.095-0.73,0.421-1.399,1.151-1.494l23.966-3.107L228.225,620.294z"/>
	</g>
	<g id="pencil_1_">
		<rect x="252.304" y="89.826" style="fill:#EFC319;" width="32" height="524.092"/>
		<polygon style="fill:#F6DE98;" points="284.304,613.918 252.304,613.918 268.304,674.43 		"/>
		<polygon style="fill:#272828;" points="274.622,650.536 261.986,650.536 268.304,674.43 		"/>
		<polygon style="opacity:0.16;" points="268.304,613.918 252.304,613.918 268.304,674.43 		"/>
		<rect x="252.304" y="29.303" style="fill:#ECEFF0;" width="32" height="60.522"/>
		<rect x="252.304" y="0" style="fill:#E64C3B;" width="32" height="29.303"/>
		<rect x="252.304" y="89.826" style="opacity:0.16;" width="16" height="524.092"/>
		<rect x="252.304" y="29.303" style="opacity:0.16;" width="16" height="60.522"/>
		<rect x="252.304" y="0" style="opacity:0.16;" width="16" height="29.303"/>
	</g>
</g>
<g id="Layer_1">
</g>
</svg>
